# xmcd
#
# Track frame offsets:
#	150
#	11779
#	23882
#	36138
#	47422
#	62258
#	74697
#	87648
#	100424
#	114848
#	128066
#	141240
#	153656
#	166256
#	179457
#	191281
#	205185
#	220508
#	232934
#	245109
#	258150
#	272398
#	283751
#	297034
#	308217
#
# Disc length: 4267 seconds
#
# Revision: 0
# Processed by: cddbd v1.5.1PL2 Copyright (c) Steve Scherf et al.
# Submitted via: dBpowerAMP V4.0
#
DISCID=6210a919
DTITLE=Various Artist - R&B Years 1949
DYEAR=1949
DGENRE=R&B
TTITLE0=Powell, Chris - Hot Dog
TTITLE1=Milburn, Amos - In the Middle of the Night
TTITLE2=Fitzgerald, Ella and Louis Jordan - Baby it's Cold Outside
TTITLE3=Ravens - Ricky's Blues
TTITLE4=Jordan, Louis - Every Man to His Own Profession
TTITLE5=Dixon, Floyd - That'll Get it
TTITLE6=Washington, Dinah - Baby Get Lost
TTITLE7=Jordan, Louis - Beans and Corn Bread
TTITLE8=Washington, Dinah - Long John Blues
TTITLE9=Little Willie Littlefield - It's Midnight (No Place to Go)
TTITLE10=Bartholomew, Dave - Mr. Fool
TTITLE11=Jacquet, Russell - Cross Bones
TTITLE12=T-Bone Walker - Hypin' Woman Blues
TTITLE13=Carter, Goree - Hoy Hoy
TTITLE14=Harris, Wynonie - All She Wants to Do is Rock
TTITLE15=Mitchell, Freddie - Doby's Boogie
TTITLE16=Lutcher, Joe - Mardi Gras
TTITLE17=Milburn, Amos - Roomin' House Boogie
TTITLE18=Brown, Roy - Please Don't Go
TTITLE19=Great Gates - Late After Hours
TTITLE20=Williams, Eddie and Floyd Dixon - Broken Hearted
TTITLE21=Banks, Buddy and Baby Davis - Happy Home Blues
TTITLE22=Milburn, Amos - Empty Arms Blues
TTITLE23=Brown, Walter - Lying Woman Blues
TTITLE24=Jimmy Preston - Rock the Joint
EXTD=
EXTT0=
EXTT1=
EXTT2=
EXTT3=
EXTT4=
EXTT5=
EXTT6=
EXTT7=
EXTT8=
EXTT9=
EXTT10=
EXTT11=
EXTT12=
EXTT13=
EXTT14=
EXTT15=
EXTT16=
EXTT17=
EXTT18=
EXTT19=
EXTT20=
EXTT21=
EXTT22=
EXTT23=
EXTT24=
PLAYORDER=
